# xmcd CD database file
#
# Track frame offsets:
#	187
#	15190
#	48502
#	69492
#	85030
#	118550
#
# Disc length: 1835 seconds
#
# Revision: 0
# Processed by: cddbd v1.5.1PL0 Copyright (c) Steve Scherf et al.
# Submitted via: CDex 1.51
#
DISCID=3d072906
DTITLE=Freddie Mccoy - Spider Man
DYEAR=1900
DGENRE=ジャズ (一般)
TTITLE0=Hav' Mercy
TTITLE1=Yesterdays
TTITLE2=The Girl From Ipanema
TTITLE3=Spider Man
TTITLE4=That's All
TTITLE5=Speak Out, Deagan!
EXTD=
EXTT0=
EXTT1=
EXTT2=
EXTT3=
EXTT4=
EXTT5=
PLAYORDER=
